<svg width="40" height="40" viewBox="0 0 40 40" fill="none" xmlns="http://www.w3.org/2000/svg">
<g id="icons/solid/ic-eva:cloud-upload-fill">
<g id="primary-shape">
<path d="M36.5007 20.0005C36.5007 19.8171 36.4007 19.6338 36.3507 19.4505C36.2735 19.127 36.1732 18.8095 36.0507 18.5005C35.9673 18.3005 35.8507 18.1005 35.7507 17.8838C35.6507 17.6671 35.5007 17.3838 35.3507 17.1505C35.2007 16.9171 35.0007 16.8005 35.0007 16.6671C35.0007 16.5338 34.6673 16.2505 34.484 16.0505C34.3007 15.8505 34.134 15.7171 33.9507 15.5505L33.334 15.0005L32.734 14.6005C32.4984 14.4563 32.2534 14.3282 32.0007 14.2171L31.3507 13.9171C31.0784 13.8163 30.8001 13.7328 30.5173 13.6671C30.2933 13.6012 30.065 13.5511 29.834 13.5171L29.4507 13.3338C28.7706 11.3689 27.4949 9.66482 25.8012 8.45873C24.1075 7.25263 22.0799 6.60449 20.0007 6.60449C17.9214 6.60449 15.8938 7.25263 14.2001 8.45873C12.5064 9.66482 11.2307 11.3689 10.5507 13.3338L10.2507 13.4171C10.0197 13.4511 9.79131 13.5012 9.56732 13.5671C9.28455 13.6328 9.00621 13.7163 8.73398 13.8171L8.08398 14.1171C7.83119 14.2282 7.58619 14.3563 7.35065 14.5005L6.75065 15.0005L6.13398 15.5171C5.95065 15.6838 5.76732 15.8338 5.60065 16.0171C5.43398 16.2005 5.25065 16.4338 5.08398 16.6338C4.91732 16.8338 4.78398 17.0171 4.65065 17.2338C4.51732 17.4505 4.38398 17.7171 4.25065 17.9671C4.11732 18.2171 4.03398 18.3838 3.95065 18.5838C3.82805 18.8929 3.7278 19.2104 3.65065 19.5338C3.65065 19.7171 3.53398 19.9005 3.50065 20.0838C3.39691 20.6054 3.34112 21.1354 3.33398 21.6671C3.3418 22.176 3.39197 22.6833 3.48398 23.1838C3.48398 23.3505 3.56732 23.5005 3.60065 23.6671C3.68303 23.9946 3.78318 24.3172 3.90065 24.6338L4.10065 25.1171C4.24736 25.4385 4.41437 25.7503 4.60065 26.0505L4.83398 26.4171C4.85796 26.4638 4.88584 26.5084 4.91732 26.5505L5.00065 26.6671C5.77688 27.7021 6.78341 28.5421 7.94054 29.1207C9.09767 29.6992 10.3736 30.0005 11.6673 30.0005H16.6673V27.7171C16.1609 28.0109 15.5861 28.1661 15.0007 28.1671C14.0977 28.1587 13.2349 27.7932 12.6007 27.1505C12.2961 26.8354 12.0567 26.4635 11.8961 26.0558C11.7354 25.6482 11.6567 25.2129 11.6645 24.7748C11.6722 24.3368 11.7662 23.9045 11.9412 23.5028C12.1161 23.1011 12.3685 22.7379 12.684 22.4338L17.684 17.6005C18.3061 17.0009 19.1367 16.6662 20.0007 16.6671C20.8833 16.6708 21.7284 17.0245 22.3507 17.6505L27.3507 22.6505C27.9715 23.275 28.32 24.1198 28.32 25.0005C28.32 25.8811 27.9715 26.7259 27.3507 27.3505C26.7284 27.9764 25.8833 28.3301 25.0007 28.3338C24.4144 28.3393 23.8378 28.1836 23.334 27.8838V30.0005H28.334C29.6277 30.0005 30.9036 29.6992 32.0608 29.1207C33.2179 28.5421 34.2244 27.7021 35.0007 26.6671L35.084 26.5838C35.1155 26.5418 35.1433 26.4972 35.1673 26.4505L35.4007 26.0838C35.5869 25.7836 35.7539 25.4719 35.9007 25.1505L36.1007 24.6671C36.2181 24.3506 36.3183 24.0279 36.4007 23.7005C36.4007 23.5338 36.484 23.3838 36.5173 23.2171C36.6112 22.7056 36.6614 22.1871 36.6673 21.6671C36.6654 21.1075 36.6096 20.5494 36.5007 20.0005Z" fill="#919EAB"/>
<path d="M21.184 18.8171C20.8724 18.5117 20.4536 18.3407 20.0173 18.3407C19.5811 18.3407 19.1622 18.5117 18.8507 18.8171L13.8507 23.6505C13.6738 23.7964 13.529 23.9772 13.4252 24.1817C13.3214 24.3862 13.261 24.6098 13.2476 24.8387C13.2342 25.0676 13.2682 25.2968 13.3474 25.512C13.4267 25.7271 13.5495 25.9236 13.7081 26.0892C13.8667 26.2547 14.0578 26.3857 14.2694 26.474C14.481 26.5624 14.7086 26.6061 14.9378 26.6024C15.1671 26.5988 15.3931 26.5479 15.6018 26.4529C15.8105 26.358 15.9973 26.2209 16.1507 26.0505L18.334 23.9338V33.3338C18.334 33.7758 18.5096 34.1997 18.8221 34.5123C19.1347 34.8249 19.5586 35.0005 20.0007 35.0005C20.4427 35.0005 20.8666 34.8249 21.1792 34.5123C21.4917 34.1997 21.6673 33.7758 21.6673 33.3338V24.0171L23.8173 26.1838C23.9723 26.34 24.1566 26.464 24.3597 26.5486C24.5628 26.6332 24.7806 26.6768 25.0007 26.6768C25.2207 26.6768 25.4385 26.6332 25.6416 26.5486C25.8447 26.464 26.029 26.34 26.184 26.1838C26.3402 26.0288 26.4642 25.8445 26.5488 25.6414C26.6334 25.4383 26.677 25.2205 26.677 25.0005C26.677 24.7804 26.6334 24.5626 26.5488 24.3595C26.4642 24.1564 26.3402 23.9721 26.184 23.8171L21.184 18.8171Z" fill="#919EAB"/>
</g>
</g>
</svg>
