<?xml version="1.0" encoding="UTF-8"?>
<svg width="24px" height="24px" viewBox="0 0 24 24" version="1.1" xmlns="http://www.w3.org/2000/svg" xmlns:xlink="http://www.w3.org/1999/xlink">
    <title>chayihua</title>
    <g id="页面-1" stroke="none" stroke-width="1" fill="none" fill-rule="evenodd">
        <g id="策略项目管理" transform="translate(-1293.000000, -331.000000)" fill="#0086FF" fill-rule="nonzero" stroke="#0086FF">
            <g id="流程控制" transform="translate(1268.000000, 196.000000)">
                <g id="差异化" transform="translate(0.000000, 135.000000)">
                    <g id="编组" transform="translate(24.000000, 0.000000)">
                        <g id="差异化" transform="translate(2.400000, 2.300000)">
                            <path d="M19.0680804,0.0266679067 L1.23325893,0.0266679067 C0.562115361,0.0275026635 0.0182631636,0.548694352 0.0173921131,1.1918736 L0.0173921131,18.2835775 C0.0182631636,18.9267567 0.562115361,19.4479484 1.23325893,19.4487832 L19.0680804,19.4487832 C19.7392239,19.4479484 20.2830761,18.9267567 20.2839472,18.2835775 L20.2839472,1.1918736 C20.2830761,0.548694352 19.7392239,0.0275026635 19.0680804,0.0266679067 Z M19.4734747,18.2835775 C19.4734747,18.4980724 19.2919012,18.6720804 19.0680804,18.6720804 L1.23325893,18.6720804 C1.00943809,18.6720804 0.827864583,18.4980724 0.827864583,18.2835775 L0.827864583,1.1918736 C0.827864583,0.977378631 1.00943809,0.803370691 1.23325893,0.803370691 L19.0680804,0.803370691 C19.2919012,0.803370691 19.4734747,0.977378631 19.4734747,1.1918736 L19.4734747,18.2835775 Z" id="形状"></path>
                            <path d="M15.0141369,11.2884037 L5.56737351,11.2884037 C5.3434804,11.2884037 5.16197917,11.4623424 5.16197917,11.6769066 C5.16197917,11.8914709 5.3434804,12.0654095 5.56737351,12.0654095 L14.1644531,12.0654095 L12.2924293,14.232177 C12.1495708,14.3974517 12.1735681,14.6424176 12.3460286,14.7793236 C12.5184892,14.9162297 12.7741058,14.8932323 12.9169643,14.7279576 L15.2759673,11.9972245 C15.4059363,11.8880696 15.4533585,11.7140231 15.3956669,11.5579088 C15.3379754,11.4017945 15.1868223,11.295143 15.0141369,11.2887068 L15.0141369,11.2884037 Z M14.7358631,8.23401925 C14.9597562,8.23401925 15.1412574,8.06008057 15.1412574,7.84551634 C15.1412574,7.6309521 14.9597562,7.45701342 14.7358631,7.45701342 L6.22479539,7.45701342 L8.3953311,5.31297433 C8.54620821,5.15827639 8.5400292,4.91628177 8.38143738,4.76884094 C8.22284556,4.62140011 7.97025821,4.62282288 7.81348586,4.77204009 L5.04908854,7.50277313 C4.90774461,7.60748424 4.84953129,7.78555358 4.90326492,7.9488345 C4.95699855,8.11211542 5.11127768,8.22596222 5.28973214,8.23401925 L14.7358631,8.23401925 Z" id="形状"></path>
                        </g>
                    </g>
                </g>
            </g>
        </g>
    </g>
</svg>