<?xml version="1.0" encoding="UTF-8"?>
<svg width="36px" height="20px" viewBox="0 0 36 20" version="1.1" xmlns="http://www.w3.org/2000/svg" xmlns:xlink="http://www.w3.org/1999/xlink">
    <!-- Generator: Sketch 52.2 (67145) - http://www.bohemiancoding.com/sketch -->
    <title>收起箭头</title>
    <desc>Created with Sketch.</desc>
    <g id="收起箭头" stroke="none" stroke-width="1" fill="none" fill-rule="evenodd">
        <g id="全部" transform="translate(10.000000, 10.000000) scale(-1, 1) translate(-10.000000, -10.000000) translate(4.000000, 4.000000)">
            <rect id="矩形" x="0" y="0" width="12" height="12"></rect>
            <path d="M6,4 L1,4 C0.44771525,4 0,3.55228475 0,3 C0,2.44771525 0.44771525,2 1,2 L7,2 C7.55228475,2 8,2.44771525 8,3 L8,9 C8,9.55228475 7.55228475,10 7,10 C6.44771525,10 6,9.55228475 6,9 L6,4 Z" id="Rectangle-2" fill="#1B2337" fill-rule="nonzero" transform="translate(4.000000, 6.000000) rotate(-315.000000) translate(-4.000000, -6.000000) "></path>
        </g>
        <g id="全部" transform="translate(20.000000, 4.000000)">
            <rect id="矩形" x="0" y="0" width="12" height="12"></rect>
            <path d="M6,4 L1,4 C0.44771525,4 0,3.55228475 0,3 C0,2.44771525 0.44771525,2 1,2 L7,2 C7.55228475,2 8,2.44771525 8,3 L8,9 C8,9.55228475 7.55228475,10 7,10 C6.44771525,10 6,9.55228475 6,9 L6,4 Z" id="Rectangle-2" fill="#1B2337" fill-rule="nonzero" transform="translate(4.000000, 6.000000) rotate(-315.000000) translate(-4.000000, -6.000000) "></path>
        </g>
    </g>
</svg>